<?xml version="1.0" encoding="UTF-8"?>
<!DOCTYPE svg PUBLIC "-//W3C//DTD SVG 1.1//EN" "http://www.w3.org/Graphics/SVG/1.1/DTD/svg11.dtd">
<!-- Creator: CorelDRAW 2021 (64-Bit) -->
<svg xmlns="http://www.w3.org/2000/svg" xml:space="preserve" width="1200px" height="783px" version="1.1" style="shape-rendering:geometricPrecision; text-rendering:geometricPrecision; image-rendering:optimizeQuality; fill-rule:evenodd; clip-rule:evenodd"
viewBox="0 0 1199.94 782.9"
 xmlns:xlink="http://www.w3.org/1999/xlink"
 xmlns:xodm="http://www.corel.com/coreldraw/odm/2003">
 <defs>
  <style type="text/css">
   <![CDATA[
    .str0 {stroke:#4D897C;stroke-width:8.41;stroke-linejoin:round;stroke-miterlimit:22.9256;stroke-dasharray:16.810000 25.220000}
    .fil0 {fill:#D6E9D8}
    .fil2 {fill:#008DD2}
    .fil3 {fill:#393185}
    .fil1 {fill:#4D897C;fill-rule:nonzero}
    .fil4 {fill:#393185;fill-rule:nonzero}
    .fil6 {fill:#008DD2;fill-opacity:0.501961}
    .fil5 {fill:#393185;fill-opacity:0.501961}
    .fil7 {fill:#393185;fill-rule:nonzero;fill-opacity:0.650980}
   ]]>
  </style>
 </defs>
 <g id="Layer_x0020_1">
  <metadata id="CorelCorpID_0Corel-Layer"/>
  <rect class="fil0 str0" x="4.2" y="4.2" width="1191.53" height="774.49" rx="57.62" ry="61.67"/>
  <polygon class="fil1" points="91.08,63.58 76.69,63.58 76.69,107.62 63.96,107.62 63.96,63.58 48.86,63.58 48.86,53.84 92.41,53.84 "/>
  <path id="_1" class="fil1" d="M133.81 95.74c0,1.53 0.2,2.65 0.61,3.37 0.42,0.7 1.11,1.25 2.1,1.6l-2.52 8.07c-2.51,-0.23 -4.6,-0.78 -6.23,-1.64 -1.64,-0.87 -2.93,-2.13 -3.86,-3.78 -1.53,1.83 -3.5,3.21 -5.92,4.16 -2.42,0.94 -4.98,1.42 -7.66,1.42 -2.8,0 -5.25,-0.55 -7.36,-1.65 -2.1,-1.1 -3.73,-2.62 -4.86,-4.58 -1.15,-1.95 -1.72,-4.19 -1.72,-6.73 0,-2.95 0.8,-5.47 2.37,-7.57 1.58,-2.09 3.87,-3.69 6.87,-4.79 3.01,-1.1 6.61,-1.65 10.82,-1.65l5.55 0 0 -1.55c0,-4.21 -2.71,-6.32 -8.14,-6.32 -1.38,0 -3.11,0.19 -5.19,0.58 -2.08,0.38 -4.11,0.92 -6.1,1.59l-2.84 -8.15c2.59,-0.98 5.32,-1.74 8.19,-2.27 2.87,-0.53 5.5,-0.79 7.88,-0.79 6.05,0 10.57,1.22 13.54,3.68 2.98,2.46 4.47,6.08 4.47,10.86l0 16.14zm-19.26 4.43c1.4,0 2.81,-0.41 4.24,-1.23 1.42,-0.8 2.49,-1.91 3.21,-3.31l0 -6.67 -3.02 0c-3.37,0 -5.86,0.51 -7.49,1.55 -1.63,1.03 -2.45,2.57 -2.45,4.61 0,1.6 0.49,2.85 1.46,3.74 0.97,0.87 2.32,1.31 4.05,1.31z"/>
  <path id="_2" class="fil1" d="M162.2 100.17c2.1,0 3.76,-0.33 4.99,-0.99 1.22,-0.66 1.84,-1.62 1.84,-2.9 0,-0.89 -0.24,-1.64 -0.73,-2.22 -0.5,-0.59 -1.42,-1.14 -2.77,-1.67 -1.35,-0.53 -3.44,-1.19 -6.28,-1.96 -4.13,-1.11 -7.3,-2.63 -9.49,-4.58 -2.18,-1.94 -3.28,-4.62 -3.28,-8.07 0,-2.48 0.69,-4.67 2.08,-6.59 1.39,-1.92 3.42,-3.42 6.12,-4.5 2.68,-1.09 5.91,-1.63 9.69,-1.63 6.55,0 12.11,1.66 16.69,5.01l-4.9 7.21c-1.77,-1.09 -3.65,-1.94 -5.59,-2.56 -1.96,-0.62 -3.91,-0.93 -5.84,-0.93 -2,0 -3.48,0.26 -4.45,0.79 -0.98,0.53 -1.46,1.32 -1.46,2.38 0,0.73 0.26,1.34 0.76,1.83 0.51,0.49 1.43,1 2.75,1.52 1.34,0.51 3.42,1.17 6.23,1.98 2.98,0.82 5.4,1.74 7.26,2.73 1.86,1 3.32,2.31 4.37,3.96 1.04,1.64 1.56,3.75 1.56,6.34 0,2.89 -0.87,5.38 -2.61,7.43 -1.75,2.06 -4.1,3.6 -7.05,4.64 -2.95,1.04 -6.22,1.55 -9.81,1.55 -3.86,0 -7.33,-0.55 -10.4,-1.65 -3.08,-1.1 -5.73,-2.62 -7.96,-4.56l6.18 -6.9c1.7,1.34 3.58,2.39 5.62,3.18 2.05,0.77 4.2,1.16 6.48,1.16z"/>
  <path id="_3" class="fil1" d="M192.23 50.04l12.26 -1.29 0 58.87 -12.26 0 0 -57.58zm26.27 16.37l12.83 0 -13.53 18.23 14.67 22.98 -13.97 0 -13.55 -22.59 13.55 -18.62z"/>
  <g id="_2529337337712">
   <g>
    <path class="fil2" d="M160.05 230.7l150.27 0c7.83,0 14.23,6.41 14.23,14.23l0 150.27c0,7.83 -6.4,14.23 -14.23,14.23l-150.27 0c-7.83,0 -14.23,-6.4 -14.23,-14.23l0 -150.27c0,-7.82 6.4,-14.23 14.23,-14.23z"/>
    <path id="_1_0" class="fil3" d="M160.05 222.3l150.27 0c6.21,0 11.86,2.54 15.96,6.64 0.01,0.01 0.01,0.01 0.02,0.02l0.01 -0.02c4.1,4.1 6.65,9.76 6.65,15.99l0 150.27c0,6.24 -2.55,11.9 -6.65,16 -0.18,0.18 -0.37,0.36 -0.57,0.52 -4.05,3.79 -9.48,6.12 -15.42,6.12l-150.27 0c-6.23,0 -11.9,-2.54 -15.99,-6.64 -4.1,-4.1 -6.65,-9.76 -6.65,-16l0 -150.27c0,-6.23 2.55,-11.89 6.65,-15.99 4.09,-4.1 9.76,-6.64 15.99,-6.64zm0 8.4l150.27 0c7.83,0 14.23,6.41 14.23,14.23l0 150.27c0,7.83 -6.4,14.23 -14.23,14.23l-150.27 0c-7.83,0 -14.23,-6.4 -14.23,-14.23l0 -150.27c0,-7.82 6.4,-14.23 14.23,-14.23z"/>
   </g>
   <polygon class="fil4" points="193.46,313.29 187.07,313.29 187.07,332.86 181.41,332.86 181.41,313.29 174.7,313.29 174.7,308.95 194.05,308.95 "/>
   <path id="_1_1" class="fil4" d="M202.48 316.35c1.53,-1.61 3.33,-2.41 5.38,-2.41 1.62,0 2.87,0.47 3.74,1.42 0.86,0.95 1.3,2.3 1.3,4.04l0 13.46 -5.45 0 0 -11.94c0,-0.75 -0.06,-1.33 -0.16,-1.76 -0.11,-0.42 -0.3,-0.73 -0.55,-0.92 -0.25,-0.19 -0.6,-0.28 -1.05,-0.28 -0.55,0 -1.08,0.18 -1.6,0.57 -0.52,0.38 -1.05,0.93 -1.61,1.65l0 12.68 -5.45 0 0 -25.59 5.45 -0.54 0 9.62z"/>
   <path id="_2_2" class="fil4" d="M231.71 313.99c1.09,0 2.1,0.19 3.02,0.55l-1.02 7.66 -3.41 0 0 -3.38c-1.02,0.18 -1.91,0.74 -2.69,1.66 -0.79,0.91 -1.4,2.07 -1.85,3.48l0 5.24 3.62 0 0 3.66 -11.48 0 0 -3.66 2.41 0 0 -11.04 -2.41 0 0 -3.62 6.57 0 1 4.13c0.65,-1.58 1.49,-2.76 2.51,-3.52 1.02,-0.77 2.26,-1.16 3.73,-1.16z"/>
   <path id="_3_3" class="fil4" d="M243.14 325.28c0.18,1.44 0.65,2.5 1.42,3.18 0.77,0.67 1.76,1.02 2.98,1.02 1.55,0 3.11,-0.51 4.69,-1.52l2.19 2.96c-0.91,0.79 -1.98,1.4 -3.22,1.85 -1.23,0.45 -2.6,0.67 -4.09,0.67 -2.05,0 -3.78,-0.4 -5.21,-1.22 -1.42,-0.82 -2.5,-1.96 -3.22,-3.43 -0.73,-1.46 -1.09,-3.15 -1.09,-5.07 0,-1.83 0.35,-3.49 1.05,-4.97 0.7,-1.49 1.73,-2.66 3.07,-3.52 1.35,-0.86 2.95,-1.29 4.81,-1.29 1.74,0 3.25,0.37 4.55,1.12 1.29,0.75 2.28,1.83 2.99,3.24 0.7,1.41 1.05,3.09 1.05,5.04 0,0.75 -0.03,1.4 -0.1,1.94l-11.87 0zm3.38 -7.68c-1,0 -1.8,0.36 -2.38,1.08 -0.6,0.72 -0.95,1.83 -1.06,3.33l6.72 0c-0.04,-2.95 -1.12,-4.41 -3.28,-4.41z"/>
   <path id="_4" class="fil4" d="M274.53 327.58c0,0.68 0.09,1.17 0.27,1.49 0.19,0.32 0.5,0.56 0.93,0.71l-1.12 3.59c-1.11,-0.1 -2.04,-0.35 -2.77,-0.73 -0.72,-0.38 -1.3,-0.94 -1.71,-1.68 -0.68,0.81 -1.55,1.43 -2.63,1.85 -1.08,0.42 -2.21,0.63 -3.41,0.63 -1.24,0 -2.33,-0.24 -3.26,-0.73 -0.94,-0.49 -1.66,-1.17 -2.17,-2.03 -0.51,-0.87 -0.76,-1.87 -0.76,-3 0,-1.31 0.35,-2.43 1.05,-3.36 0.7,-0.93 1.72,-1.64 3.06,-2.13 1.33,-0.49 2.94,-0.73 4.81,-0.73l2.46 0 0 -0.69c0,-1.88 -1.2,-2.81 -3.62,-2.81 -0.61,0 -1.38,0.08 -2.3,0.26 -0.93,0.17 -1.83,0.41 -2.71,0.7l-1.26 -3.62c1.14,-0.43 2.36,-0.77 3.63,-1.01 1.28,-0.23 2.45,-0.35 3.51,-0.35 2.69,0 4.69,0.54 6.02,1.64 1.32,1.09 1.98,2.7 1.98,4.82l0 7.18zm-8.56 1.96c0.62,0 1.25,-0.18 1.88,-0.54 0.64,-0.36 1.11,-0.85 1.43,-1.47l0 -2.97 -1.34 0c-1.5,0 -2.6,0.23 -3.33,0.69 -0.72,0.46 -1.09,1.14 -1.09,2.05 0,0.71 0.22,1.27 0.65,1.66 0.43,0.39 1.03,0.58 1.8,0.58z"/>
   <path id="_5" class="fil4" d="M290.22 306.69l5.45 0.58 0 25.59 -4.83 0 -0.28 -2.02c-0.55,0.78 -1.25,1.41 -2.1,1.89 -0.85,0.47 -1.84,0.71 -2.97,0.71 -1.48,0 -2.72,-0.4 -3.73,-1.19 -1,-0.81 -1.76,-1.94 -2.25,-3.4 -0.5,-1.47 -0.74,-3.2 -0.74,-5.2 0,-1.87 0.29,-3.55 0.89,-5.02 0.59,-1.47 1.43,-2.62 2.53,-3.45 1.1,-0.83 2.39,-1.24 3.87,-1.24 1.65,0 3.03,0.56 4.16,1.69l0 -8.94zm-2.69 11.23c-0.99,0 -1.76,0.47 -2.31,1.39 -0.56,0.92 -0.83,2.38 -0.83,4.37 0,2.13 0.24,3.62 0.73,4.48 0.49,0.85 1.19,1.28 2.1,1.28 1.15,0 2.14,-0.7 3,-2.12l0 -7.9c-0.41,-0.49 -0.82,-0.87 -1.24,-1.12 -0.43,-0.25 -0.91,-0.38 -1.45,-0.38z"/>
  </g>
  <g>
   <g>
    <path class="fil5" d="M411.44 222.3l150.27 0c6.22,0 11.87,2.54 15.96,6.64 0.01,0.01 0.02,0.01 0.02,0.02l0.02 -0.02c4.1,4.1 6.64,9.76 6.64,15.99l0 150.27c0,6.24 -2.54,11.9 -6.64,16 -0.19,0.18 -0.38,0.36 -0.57,0.52 -4.05,3.79 -9.48,6.12 -15.43,6.12l-150.27 0c-6.23,0 -11.89,-2.54 -15.99,-6.64 -4.1,-4.1 -6.64,-9.76 -6.64,-16l0 -150.27c0,-6.23 2.54,-11.89 6.64,-15.99 4.1,-4.1 9.76,-6.64 15.99,-6.64zm0 8.4l150.27 0c7.83,0 14.23,6.41 14.23,14.23l0 150.27c0,7.83 -6.4,14.23 -14.23,14.23l-150.27 0c-7.82,0 -14.23,-6.4 -14.23,-14.23l0 -150.27c0,-7.82 6.41,-14.23 14.23,-14.23z"/>
    <path id="_1_4" class="fil6" d="M411.44 230.7l150.27 0c7.83,0 14.23,6.41 14.23,14.23l0 150.27c0,7.83 -6.4,14.23 -14.23,14.23l-150.27 0c-7.82,0 -14.23,-6.4 -14.23,-14.23l0 -150.27c0,-7.82 6.41,-14.23 14.23,-14.23z"/>
   </g>
   <path class="fil7" d="M434.08 315.6c0,1.81 -0.39,3.32 -1.17,4.55 -0.78,1.22 -1.88,2.13 -3.3,2.73 -1.42,0.6 -3.09,0.9 -5.02,0.9l-2.58 0 0 7.95 -5.65 0 0 -23.91 7.51 0c3.29,0 5.81,0.66 7.57,1.96 1.76,1.31 2.64,3.25 2.64,5.82zm-5.83 0.02c0,-1.28 -0.35,-2.22 -1.07,-2.84 -0.71,-0.61 -1.79,-0.92 -3.24,-0.92l-1.93 0 0 7.81 2.23 0c1.28,0 2.27,-0.33 2.97,-1 0.7,-0.66 1.04,-1.68 1.04,-3.05zm23.04 -2.76c1.09,0 2.1,0.19 3.02,0.55l-1.02 7.66 -3.41 0 0 -3.38c-1.02,0.18 -1.91,0.74 -2.69,1.66 -0.79,0.92 -1.4,2.08 -1.85,3.48l0 5.24 3.62 0 0 3.66 -11.48 0 0 -3.66 2.41 0 0 -11.04 -2.41 0 0 -3.62 6.57 0 1 4.13c0.65,-1.58 1.49,-2.76 2.51,-3.52 1.02,-0.77 2.26,-1.16 3.73,-1.16zm14.64 -0.05c1.85,0 3.45,0.4 4.78,1.19 1.34,0.81 2.36,1.94 3.06,3.4 0.71,1.46 1.06,3.16 1.06,5.12 0,2.03 -0.35,3.78 -1.06,5.25 -0.71,1.46 -1.73,2.59 -3.07,3.37 -1.33,0.78 -2.92,1.18 -4.77,1.18 -1.86,0 -3.46,-0.39 -4.79,-1.17 -1.34,-0.76 -2.36,-1.88 -3.06,-3.35 -0.7,-1.47 -1.05,-3.21 -1.05,-5.25 0,-1.94 0.36,-3.65 1.06,-5.11 0.71,-1.47 1.73,-2.61 3.07,-3.41 1.34,-0.82 2.93,-1.22 4.77,-1.22zm0 4.02c-1.12,0 -1.94,0.46 -2.47,1.38 -0.54,0.92 -0.8,2.36 -0.8,4.34 0,2.01 0.26,3.48 0.79,4.39 0.52,0.91 1.35,1.37 2.48,1.37 1.13,0 1.95,-0.46 2.48,-1.38 0.53,-0.92 0.8,-2.39 0.8,-4.41 0,-1.97 -0.27,-3.41 -0.8,-4.32 -0.54,-0.92 -1.37,-1.37 -2.48,-1.37zm22.47 11.19c0.7,0 1.38,-0.14 2.03,-0.41 0.65,-0.27 1.33,-0.65 2.05,-1.16l2.44 3.45c-0.87,0.73 -1.88,1.32 -3.04,1.76 -1.16,0.44 -2.42,0.66 -3.77,0.66 -1.95,0 -3.63,-0.41 -5.06,-1.22 -1.42,-0.8 -2.52,-1.92 -3.27,-3.38 -0.76,-1.44 -1.14,-3.12 -1.14,-5.03 0,-1.91 0.39,-3.61 1.17,-5.1 0.78,-1.5 1.9,-2.67 3.34,-3.51 1.44,-0.85 3.13,-1.27 5.06,-1.27 1.36,0 2.59,0.19 3.68,0.57 1.09,0.38 2.09,0.95 3.03,1.72l-2.36 3.28c-1.33,-0.92 -2.7,-1.38 -4.13,-1.38 -1.3,0 -2.31,0.45 -3.03,1.36 -0.71,0.91 -1.07,2.35 -1.07,4.33 0,1.91 0.36,3.27 1.09,4.09 0.72,0.83 1.71,1.24 2.98,1.24zm15.71 -3.87c0.17,1.44 0.64,2.5 1.41,3.18 0.77,0.68 1.76,1.02 2.98,1.02 1.55,0 3.12,-0.51 4.69,-1.52l2.19 2.96c-0.9,0.79 -1.97,1.4 -3.21,1.85 -1.24,0.45 -2.6,0.68 -4.1,0.68 -2.05,0 -3.78,-0.41 -5.21,-1.23 -1.42,-0.82 -2.5,-1.96 -3.22,-3.43 -0.72,-1.46 -1.09,-3.15 -1.09,-5.07 0,-1.83 0.36,-3.48 1.06,-4.97 0.7,-1.49 1.72,-2.66 3.07,-3.52 1.34,-0.86 2.95,-1.29 4.81,-1.29 1.73,0 3.25,0.37 4.54,1.12 1.29,0.75 2.29,1.83 2.99,3.24 0.7,1.41 1.05,3.1 1.05,5.04 0,0.75 -0.03,1.4 -0.1,1.94l-11.86 0zm3.38 -7.68c-1.01,0 -1.8,0.36 -2.39,1.08 -0.6,0.73 -0.95,1.84 -1.06,3.33l6.73 0c-0.04,-2.95 -1.13,-4.41 -3.28,-4.41zm19.93 11.94c0.93,0 1.67,-0.14 2.22,-0.43 0.54,-0.3 0.81,-0.73 0.81,-1.29 0,-0.4 -0.1,-0.73 -0.32,-0.99 -0.22,-0.26 -0.63,-0.51 -1.23,-0.74 -0.6,-0.24 -1.53,-0.53 -2.79,-0.87 -1.84,-0.5 -3.24,-1.17 -4.22,-2.04 -0.97,-0.86 -1.46,-2.05 -1.46,-3.58 0,-1.11 0.31,-2.08 0.93,-2.94 0.61,-0.85 1.52,-1.51 2.72,-2 1.19,-0.48 2.62,-0.72 4.31,-0.72 2.9,0 5.38,0.74 7.41,2.23l-2.17 3.2c-0.79,-0.48 -1.63,-0.86 -2.49,-1.14 -0.87,-0.27 -1.74,-0.41 -2.6,-0.41 -0.88,0 -1.54,0.12 -1.98,0.35 -0.43,0.24 -0.64,0.59 -0.64,1.06 0,0.33 0.11,0.6 0.34,0.81 0.22,0.22 0.63,0.45 1.22,0.68 0.59,0.23 1.52,0.52 2.77,0.88 1.32,0.36 2.4,0.77 3.22,1.21 0.83,0.45 1.48,1.03 1.94,1.76 0.47,0.73 0.7,1.67 0.7,2.82 0,1.29 -0.39,2.39 -1.16,3.3 -0.78,0.92 -1.82,1.6 -3.13,2.07 -1.32,0.46 -2.77,0.69 -4.36,0.69 -1.72,0 -3.26,-0.25 -4.63,-0.74 -1.37,-0.49 -2.54,-1.16 -3.53,-2.03l2.74 -3.06c0.76,0.59 1.59,1.06 2.5,1.41 0.91,0.34 1.87,0.51 2.88,0.51zm20.69 0c0.93,0 1.67,-0.14 2.22,-0.43 0.54,-0.3 0.82,-0.73 0.82,-1.29 0,-0.4 -0.11,-0.73 -0.33,-0.99 -0.22,-0.26 -0.63,-0.51 -1.23,-0.74 -0.6,-0.24 -1.53,-0.53 -2.79,-0.87 -1.84,-0.5 -3.24,-1.17 -4.22,-2.04 -0.97,-0.86 -1.45,-2.05 -1.45,-3.58 0,-1.11 0.3,-2.08 0.92,-2.94 0.62,-0.85 1.52,-1.51 2.72,-2 1.19,-0.48 2.63,-0.72 4.31,-0.72 2.91,0 5.38,0.74 7.41,2.23l-2.17 3.2c-0.79,-0.48 -1.63,-0.86 -2.49,-1.14 -0.87,-0.27 -1.74,-0.41 -2.6,-0.41 -0.88,0 -1.54,0.12 -1.97,0.35 -0.43,0.24 -0.65,0.59 -0.65,1.06 0,0.33 0.11,0.6 0.34,0.81 0.22,0.22 0.63,0.45 1.22,0.68 0.59,0.23 1.52,0.52 2.77,0.88 1.32,0.36 2.4,0.77 3.23,1.21 0.82,0.45 1.47,1.03 1.94,1.76 0.46,0.73 0.69,1.67 0.69,2.82 0,1.29 -0.39,2.39 -1.16,3.3 -0.78,0.92 -1.82,1.6 -3.13,2.07 -1.31,0.46 -2.77,0.69 -4.36,0.69 -1.72,0 -3.26,-0.25 -4.63,-0.74 -1.36,-0.49 -2.54,-1.16 -3.53,-2.03l2.74 -3.06c0.76,0.59 1.6,1.06 2.5,1.41 0.91,0.34 1.87,0.51 2.88,0.51z"/>
  </g>
  <g>
   <g>
    <path class="fil5" d="M662.84 222.3l150.27 0c6.23,0 11.89,2.54 15.99,6.64 4.1,4.1 6.64,9.76 6.64,15.99l0 150.27c0,6.24 -2.54,11.9 -6.64,16 -4.1,4.1 -9.76,6.64 -15.99,6.64l-150.27 0c-6.21,0 -11.86,-2.54 -15.96,-6.64 -0.01,-0.01 -0.01,-0.01 -0.02,-0.02l-0.02 0.02c-4.09,-4.1 -6.64,-9.76 -6.64,-16l0 -150.27c0,-6.23 2.55,-11.89 6.64,-15.99 0.19,-0.18 0.38,-0.36 0.58,-0.52 4.04,-3.79 9.47,-6.12 15.42,-6.12zm0 8.4l150.27 0c7.82,0 14.23,6.41 14.23,14.23l0 150.27c0,7.83 -6.41,14.23 -14.23,14.23l-150.27 0c-7.83,0 -14.23,-6.4 -14.23,-14.23l0 -150.27c0,-7.82 6.4,-14.23 14.23,-14.23z"/>
    <path id="_1_5" class="fil6" d="M662.84 230.7l150.27 0c7.82,0 14.23,6.41 14.23,14.23l0 150.27c0,7.83 -6.41,14.23 -14.23,14.23l-150.27 0c-7.83,0 -14.23,-6.4 -14.23,-14.23l0 -150.27c0,-7.82 6.4,-14.23 14.23,-14.23z"/>
   </g>
   <path class="fil7" d="M706.83 305.16c0,1.48 -0.39,2.8 -1.17,3.94 -0.78,1.15 -1.91,2.04 -3.37,2.68 -1.47,0.64 -3.2,0.96 -5.19,0.96 -3.95,0 -7.1,-1.16 -9.45,-3.46l2.87 -3.17c1.83,1.61 3.97,2.42 6.44,2.42 1.21,0 2.18,-0.26 2.9,-0.78 0.73,-0.52 1.09,-1.24 1.09,-2.15 0,-0.59 -0.13,-1.09 -0.4,-1.48 -0.26,-0.4 -0.7,-0.76 -1.32,-1.08 -0.61,-0.32 -1.49,-0.66 -2.62,-1 -1.88,-0.58 -3.38,-1.2 -4.5,-1.9 -1.13,-0.69 -1.95,-1.48 -2.47,-2.37 -0.51,-0.9 -0.76,-1.97 -0.76,-3.19 0,-1.42 0.4,-2.65 1.2,-3.7 0.8,-1.06 1.88,-1.86 3.25,-2.41 1.36,-0.55 2.88,-0.83 4.55,-0.83 3.55,0 6.41,1.03 8.57,3.09l-2.67 3.07c-0.81,-0.67 -1.67,-1.17 -2.6,-1.5 -0.92,-0.34 -1.87,-0.5 -2.85,-0.5 -1.1,0 -1.98,0.2 -2.62,0.61 -0.65,0.41 -0.97,0.98 -0.97,1.74 0,0.51 0.15,0.94 0.43,1.28 0.29,0.33 0.77,0.65 1.44,0.95 0.67,0.29 1.68,0.65 3.03,1.07 1.61,0.5 2.93,1.07 3.97,1.71 1.03,0.63 1.83,1.44 2.38,2.41 0.56,0.97 0.84,2.16 0.84,3.59zm14.73 6.99c-0.83,2.47 -2.06,4.33 -3.7,5.57 -1.63,1.25 -3.82,1.95 -6.57,2.1l-0.62 -3.85c1.2,-0.15 2.17,-0.37 2.91,-0.66 0.74,-0.29 1.34,-0.69 1.8,-1.19 0.45,-0.5 0.85,-1.16 1.19,-1.97l-1.86 0 -5.81 -18.32 5.76 0 3.55 14.83 3.86 -14.83 5.59 0 -6.1 18.32zm9.48 0l0 -18.32 4.76 0 0.38 2.13c0.82,-0.93 1.69,-1.62 2.6,-2.07 0.91,-0.44 1.94,-0.66 3.09,-0.66 1.57,0 2.81,0.48 3.7,1.44 0.89,0.96 1.34,2.3 1.34,4.03l0 13.45 -5.46 0 0 -11.89c0,-0.75 -0.05,-1.35 -0.16,-1.79 -0.11,-0.44 -0.29,-0.75 -0.54,-0.94 -0.25,-0.19 -0.61,-0.28 -1.06,-0.28 -0.55,0 -1.08,0.17 -1.6,0.52 -0.53,0.35 -1.06,0.88 -1.6,1.56l0 12.82 -5.45 0zm30.4 -3.71c0.7,0 1.38,-0.14 2.03,-0.41 0.65,-0.27 1.33,-0.65 2.05,-1.16l2.44 3.45c-0.87,0.73 -1.87,1.32 -3.04,1.76 -1.16,0.44 -2.42,0.66 -3.77,0.66 -1.95,0 -3.63,-0.41 -5.06,-1.22 -1.42,-0.8 -2.51,-1.92 -3.27,-3.38 -0.76,-1.44 -1.14,-3.12 -1.14,-5.03 0,-1.91 0.39,-3.61 1.17,-5.1 0.78,-1.5 1.9,-2.67 3.34,-3.51 1.44,-0.85 3.13,-1.27 5.06,-1.27 1.37,0 2.59,0.19 3.68,0.57 1.09,0.38 2.1,0.95 3.03,1.72l-2.36 3.28c-1.33,-0.92 -2.7,-1.38 -4.13,-1.38 -1.3,0 -2.31,0.45 -3.02,1.36 -0.72,0.91 -1.08,2.35 -1.08,4.33 0,1.91 0.36,3.28 1.09,4.09 0.72,0.83 1.71,1.24 2.98,1.24zm16.43 -12.8c1.53,-1.61 3.33,-2.41 5.38,-2.41 1.62,0 2.87,0.47 3.73,1.42 0.87,0.95 1.31,2.3 1.31,4.05l0 13.45 -5.45 0 0 -11.94c0,-0.75 -0.06,-1.33 -0.16,-1.76 -0.11,-0.42 -0.3,-0.73 -0.55,-0.92 -0.25,-0.19 -0.6,-0.28 -1.05,-0.28 -0.55,0 -1.08,0.18 -1.61,0.57 -0.51,0.38 -1.04,0.93 -1.6,1.65l0 12.68 -5.45 0 0 -25.59 5.45 -0.54 0 9.62zm-67.94 33.39c1.65,0 3.07,0.21 4.29,0.64 1.21,0.43 2.34,1.08 3.39,1.96l-2.78 3.34c-1.43,-1.17 -3.03,-1.76 -4.76,-1.76 -1.05,0 -1.98,0.3 -2.8,0.88 -0.82,0.59 -1.47,1.51 -1.95,2.75 -0.48,1.24 -0.72,2.8 -0.72,4.69 0,2.77 0.51,4.83 1.51,6.19 0.99,1.36 2.35,2.03 4.06,2.03 0.75,0 1.43,-0.09 2.03,-0.29 0.6,-0.19 1.14,-0.44 1.61,-0.73 0.48,-0.29 0.99,-0.66 1.54,-1.11l2.57 3.27c-2.17,2.15 -4.86,3.23 -8.05,3.23 -2.19,0 -4.12,-0.49 -5.79,-1.45 -1.67,-0.97 -2.98,-2.4 -3.92,-4.28 -0.93,-1.9 -1.4,-4.19 -1.4,-6.86 0,-2.6 0.49,-4.84 1.45,-6.73 0.98,-1.88 2.31,-3.32 4,-4.3 1.69,-0.98 3.6,-1.47 5.72,-1.47zm18.69 5.59c1.85,0 3.45,0.39 4.79,1.19 1.34,0.8 2.36,1.93 3.06,3.39 0.7,1.46 1.05,3.17 1.05,5.12 0,2.04 -0.35,3.79 -1.05,5.25 -0.72,1.47 -1.74,2.59 -3.07,3.37 -1.33,0.79 -2.93,1.18 -4.78,1.18 -1.86,0 -3.45,-0.39 -4.79,-1.16 -1.33,-0.77 -2.35,-1.88 -3.05,-3.35 -0.7,-1.47 -1.06,-3.22 -1.06,-5.25 0,-1.95 0.36,-3.65 1.07,-5.11 0.71,-1.47 1.73,-2.61 3.06,-3.42 1.34,-0.81 2.94,-1.21 4.77,-1.21zm0 4.01c-1.11,0 -1.93,0.46 -2.47,1.38 -0.54,0.92 -0.8,2.37 -0.8,4.35 0,2.01 0.26,3.47 0.79,4.38 0.53,0.92 1.36,1.38 2.48,1.38 1.13,0 1.96,-0.46 2.49,-1.38 0.53,-0.93 0.79,-2.39 0.79,-4.42 0,-1.96 -0.27,-3.4 -0.8,-4.32 -0.54,-0.91 -1.36,-1.37 -2.48,-1.37zm23.18 -11.26l5.45 0.57 0 25.59 -4.83 0 -0.27 -2.02c-0.56,0.78 -1.26,1.42 -2.11,1.89 -0.85,0.48 -1.84,0.72 -2.97,0.72 -1.48,0 -2.72,-0.4 -3.73,-1.2 -1,-0.8 -1.75,-1.93 -2.25,-3.4 -0.49,-1.46 -0.74,-3.2 -0.74,-5.2 0,-1.87 0.3,-3.54 0.89,-5.01 0.59,-1.48 1.43,-2.63 2.53,-3.46 1.1,-0.83 2.39,-1.23 3.88,-1.23 1.64,0 3.02,0.56 4.15,1.68l0 -8.93zm-2.69 11.22c-0.99,0 -1.76,0.47 -2.31,1.39 -0.55,0.93 -0.83,2.39 -0.83,4.38 0,2.13 0.25,3.62 0.73,4.47 0.49,0.86 1.19,1.29 2.1,1.29 1.15,0 2.15,-0.71 3,-2.13l0 -7.89c-0.4,-0.5 -0.81,-0.87 -1.24,-1.12 -0.43,-0.26 -0.91,-0.39 -1.45,-0.39zm17.69 7.37c0.18,1.44 0.65,2.49 1.42,3.17 0.77,0.68 1.76,1.02 2.98,1.02 1.55,0 3.11,-0.5 4.69,-1.52l2.19 2.97c-0.91,0.78 -1.98,1.4 -3.22,1.85 -1.23,0.44 -2.6,0.67 -4.09,0.67 -2.05,0 -3.78,-0.41 -5.21,-1.23 -1.43,-0.82 -2.5,-1.95 -3.22,-3.42 -0.73,-1.47 -1.09,-3.16 -1.09,-5.08 0,-1.83 0.35,-3.48 1.05,-4.97 0.7,-1.48 1.73,-2.65 3.07,-3.52 1.35,-0.85 2.95,-1.28 4.81,-1.28 1.74,0 3.25,0.37 4.55,1.12 1.29,0.74 2.28,1.82 2.99,3.24 0.7,1.41 1.05,3.09 1.05,5.03 0,0.75 -0.04,1.4 -0.1,1.95l-11.87 0zm3.38 -7.69c-1,0 -1.8,0.36 -2.39,1.09 -0.59,0.72 -0.94,1.83 -1.05,3.33l6.72 0c-0.04,-2.95 -1.13,-4.42 -3.28,-4.42z"/>
  </g>
  <g>
   <g>
    <path class="fil5" d="M914.23 222.3l150.27 0c6.23,0 11.9,2.54 15.99,6.64 4.1,4.1 6.65,9.76 6.65,15.99l0 150.27c0,6.24 -2.55,11.9 -6.65,16 -4.09,4.1 -9.76,6.64 -15.99,6.64l-150.27 0c-6.21,0 -11.86,-2.54 -15.96,-6.64 -0.01,-0.01 -0.01,-0.01 -0.02,-0.02l-0.01 0.02c-4.1,-4.1 -6.65,-9.76 -6.65,-16l0 -150.27c0,-6.23 2.55,-11.89 6.65,-15.99 0.18,-0.18 0.37,-0.36 0.57,-0.52 4.05,-3.79 9.48,-6.12 15.42,-6.12zm0 8.4l150.27 0c7.83,0 14.23,6.41 14.23,14.23l0 150.27c0,7.83 -6.4,14.23 -14.23,14.23l-150.27 0c-7.83,0 -14.23,-6.4 -14.23,-14.23l0 -150.27c0,-7.82 6.4,-14.23 14.23,-14.23z"/>
    <path id="_1_6" class="fil6" d="M914.23 230.7l150.27 0c7.83,0 14.23,6.41 14.23,14.23l0 150.27c0,7.83 -6.4,14.23 -14.23,14.23l-150.27 0c-7.83,0 -14.23,-6.4 -14.23,-14.23l0 -150.27c0,-7.82 6.4,-14.23 14.23,-14.23z"/>
   </g>
   <path class="fil7" d="M960.01 308.32l15.52 0 0 4.15 -4.93 0 0 15.6 4.93 0 0 4.16 -15.52 0 0 -4.16 4.93 0 0 -15.6 -4.93 0 0 -4.15zm37.81 -2.32l-14.47 30.09 -4.26 -1.95 14.51 -30.09 4.22 1.95zm20.9 14.26c0,2.55 -0.36,4.77 -1.1,6.65 -0.72,1.88 -1.81,3.33 -3.25,4.36 -1.43,1.03 -3.17,1.55 -5.22,1.55 -2.06,0 -3.8,-0.51 -5.23,-1.52 -1.43,-1 -2.52,-2.45 -3.24,-4.32 -0.73,-1.88 -1.1,-4.12 -1.1,-6.72 0,-2.54 0.37,-4.75 1.1,-6.63 0.72,-1.88 1.81,-3.33 3.25,-4.36 1.43,-1.04 3.17,-1.55 5.22,-1.55 2.06,0 3.81,0.5 5.23,1.51 1.43,1.01 2.52,2.45 3.24,4.33 0.74,1.88 1.1,4.11 1.1,6.7zm-5.79 0c0,-1.98 -0.13,-3.58 -0.39,-4.81 -0.26,-1.23 -0.67,-2.14 -1.22,-2.73 -0.55,-0.58 -1.27,-0.88 -2.17,-0.88 -0.9,0 -1.62,0.3 -2.17,0.88 -0.55,0.59 -0.96,1.5 -1.21,2.73 -0.27,1.23 -0.4,2.83 -0.4,4.81 0,1.98 0.13,3.58 0.4,4.81 0.25,1.23 0.66,2.14 1.22,2.73 0.55,0.58 1.28,0.88 2.16,0.88 0.92,0 1.66,-0.3 2.21,-0.89 0.55,-0.59 0.95,-1.5 1.2,-2.72 0.24,-1.23 0.37,-2.83 0.37,-4.81z"/>
  </g>
  <g>
   <g>
    <path class="fil5" d="M160.05 477.18l150.27 0c6.21,0 11.86,2.54 15.96,6.64 0.01,0.01 0.02,0.02 0.03,0.03l0 0c4.1,4.1 6.65,9.75 6.65,15.96l0 150.27c0,6.24 -2.55,11.9 -6.65,16 -0.18,0.18 -0.37,0.36 -0.57,0.52 -4.05,3.79 -9.48,6.12 -15.42,6.12l-150.27 0c-6.23,0 -11.9,-2.54 -15.99,-6.64 -4.1,-4.1 -6.65,-9.76 -6.65,-16l0 -150.27c0,-6.21 2.55,-11.86 6.65,-15.96 0,0 0.01,-0.01 0.01,-0.01l-0.01 -0.02c4.09,-4.1 9.76,-6.64 15.99,-6.64zm0 8.4l150.27 0c7.83,0 14.23,6.41 14.23,14.23l0 150.27c0,7.83 -6.4,14.23 -14.23,14.23l-150.27 0c-7.83,0 -14.23,-6.4 -14.23,-14.23l0 -150.27c0,-7.82 6.4,-14.23 14.23,-14.23z"/>
    <path id="_1_7" class="fil6" d="M160.05 485.58l150.27 0c7.83,0 14.23,6.41 14.23,14.23l0 150.27c0,7.83 -6.4,14.23 -14.23,14.23l-150.27 0c-7.83,0 -14.23,-6.4 -14.23,-14.23l0 -150.27c0,-7.82 6.4,-14.23 14.23,-14.23z"/>
   </g>
   <path class="fil7" d="M212.65 554.39c0,1.67 -0.34,3.15 -1.01,4.44 -0.67,1.29 -1.68,2.3 -3.01,3.04 -1.33,0.74 -2.96,1.11 -4.88,1.11 -1.94,0 -3.58,-0.36 -4.92,-1.07 -1.33,-0.72 -2.33,-1.72 -2.99,-3.01 -0.66,-1.28 -0.99,-2.79 -0.99,-4.51l0 -15.9 5.68 0 0 13.79c0,1.56 0.08,2.79 0.24,3.7 0.17,0.92 0.49,1.61 0.94,2.08 0.46,0.47 1.14,0.71 2.04,0.71 0.9,0 1.57,-0.24 2.03,-0.71 0.46,-0.47 0.78,-1.16 0.94,-2.08 0.17,-0.91 0.26,-2.14 0.26,-3.7l0 -13.79 5.67 0 0 15.9zm11.21 4.69c0.93,0 1.67,-0.15 2.21,-0.44 0.55,-0.3 0.82,-0.72 0.82,-1.29 0,-0.4 -0.11,-0.73 -0.32,-0.99 -0.22,-0.26 -0.63,-0.51 -1.23,-0.74 -0.6,-0.24 -1.53,-0.53 -2.79,-0.87 -1.84,-0.49 -3.25,-1.17 -4.22,-2.03 -0.97,-0.87 -1.46,-2.06 -1.46,-3.59 0,-1.11 0.31,-2.08 0.92,-2.93 0.62,-0.85 1.52,-1.52 2.72,-2 1.2,-0.49 2.63,-0.73 4.31,-0.73 2.91,0 5.38,0.74 7.42,2.23l-2.18 3.2c-0.79,-0.48 -1.62,-0.86 -2.49,-1.13 -0.86,-0.28 -1.73,-0.42 -2.59,-0.42 -0.89,0 -1.55,0.12 -1.98,0.35 -0.43,0.24 -0.64,0.59 -0.64,1.06 0,0.33 0.11,0.6 0.33,0.82 0.23,0.22 0.64,0.44 1.22,0.67 0.6,0.23 1.52,0.52 2.77,0.88 1.33,0.36 2.4,0.77 3.23,1.22 0.82,0.44 1.48,1.02 1.94,1.76 0.47,0.72 0.7,1.66 0.7,2.81 0,1.29 -0.39,2.39 -1.16,3.31 -0.78,0.91 -1.83,1.59 -3.14,2.06 -1.31,0.46 -2.76,0.69 -4.36,0.69 -1.71,0 -3.25,-0.25 -4.62,-0.74 -1.37,-0.48 -2.55,-1.16 -3.54,-2.03l2.75 -3.06c0.75,0.59 1.59,1.06 2.5,1.41 0.91,0.34 1.86,0.52 2.88,0.52zm18.07 -4.26c0.17,1.44 0.64,2.49 1.41,3.17 0.77,0.68 1.77,1.02 2.98,1.02 1.55,0 3.12,-0.51 4.69,-1.52l2.19 2.96c-0.9,0.79 -1.97,1.41 -3.21,1.85 -1.24,0.45 -2.6,0.68 -4.09,0.68 -2.06,0 -3.79,-0.41 -5.22,-1.23 -1.42,-0.82 -2.5,-1.96 -3.22,-3.42 -0.72,-1.47 -1.09,-3.16 -1.09,-5.08 0,-1.83 0.36,-3.48 1.06,-4.97 0.7,-1.48 1.72,-2.65 3.07,-3.52 1.34,-0.85 2.95,-1.29 4.81,-1.29 1.73,0 3.25,0.37 4.54,1.12 1.29,0.75 2.29,1.83 2.99,3.24 0.71,1.42 1.05,3.1 1.05,5.04 0,0.75 -0.03,1.4 -0.1,1.95l-11.86 0zm3.38 -7.69c-1.01,0 -1.8,0.36 -2.39,1.08 -0.59,0.73 -0.95,1.84 -1.06,3.33l6.73 0c-0.04,-2.94 -1.13,-4.41 -3.28,-4.41zm26.57 -3.61c1.09,0 2.1,0.19 3.02,0.55l-1.02 7.66 -3.41 0 0 -3.38c-1.02,0.18 -1.92,0.74 -2.69,1.66 -0.79,0.92 -1.4,2.08 -1.85,3.48l0 5.24 3.62 0 0 3.66 -11.48 0 0 -3.66 2.41 0 0 -11.04 -2.41 0 0 -3.62 6.57 0 0.99 4.13c0.66,-1.58 1.5,-2.75 2.52,-3.52 1.02,-0.77 2.26,-1.16 3.73,-1.16zm-86.23 36.35l15.52 0 0 4.14 -4.94 0 0 15.6 4.94 0 0 4.16 -15.52 0 0 -4.16 4.93 0 0 -15.6 -4.93 0 0 -4.14zm20.51 23.9l0 -18.31 4.76 0 0.38 2.12c0.83,-0.93 1.7,-1.62 2.6,-2.06 0.91,-0.44 1.94,-0.66 3.09,-0.66 1.58,0 2.81,0.47 3.7,1.44 0.89,0.96 1.34,2.3 1.34,4.02l0 13.45 -5.45 0 0 -11.88c0,-0.76 -0.06,-1.35 -0.16,-1.79 -0.11,-0.44 -0.3,-0.75 -0.55,-0.94 -0.25,-0.19 -0.6,-0.28 -1.05,-0.28 -0.55,0 -1.09,0.17 -1.61,0.52 -0.53,0.35 -1.05,0.87 -1.6,1.56l0 12.81 -5.45 0zm30.84 -18.91c2.3,0 4,0.84 5.07,2.52 1.08,1.69 1.62,4.08 1.62,7.18 0,1.9 -0.28,3.59 -0.84,5.07 -0.56,1.48 -1.37,2.63 -2.42,3.47 -1.06,0.84 -2.32,1.26 -3.78,1.26 -1.78,0 -3.23,-0.64 -4.35,-1.92l0 8.41 -5.44 0.56 0 -25.95 4.82 0 0.24 2.05c0.72,-0.91 1.51,-1.58 2.39,-2.01 0.87,-0.43 1.77,-0.64 2.69,-0.64zm-1.7 4.02c-0.6,0 -1.15,0.18 -1.64,0.53 -0.49,0.37 -0.94,0.9 -1.36,1.58l0 7.73c0.4,0.58 0.8,0.99 1.22,1.25 0.42,0.26 0.91,0.39 1.47,0.39 1.01,0 1.76,-0.45 2.29,-1.36 0.52,-0.91 0.79,-2.37 0.79,-4.37 0,-1.47 -0.11,-2.63 -0.32,-3.47 -0.22,-0.85 -0.52,-1.44 -0.93,-1.78 -0.4,-0.34 -0.91,-0.5 -1.52,-0.5zm17.7 9.11c0,0.86 0.15,1.46 0.46,1.81 0.32,0.35 0.78,0.53 1.4,0.53 0.56,0 1.12,-0.18 1.69,-0.54 0.56,-0.35 1.04,-0.84 1.41,-1.45l0 -12.88 5.46 0 0 18.31 -4.77 0 -0.24 -2.14c-0.6,0.88 -1.41,1.55 -2.42,2.02 -0.99,0.48 -2.06,0.71 -3.2,0.71 -1.74,0 -3.04,-0.5 -3.92,-1.5 -0.88,-1 -1.32,-2.4 -1.32,-4.19l0 -13.21 5.45 0 0 12.53zm31.72 4.71c-0.76,0.51 -1.66,0.91 -2.67,1.21 -1.02,0.3 -2.13,0.45 -3.32,0.45 -2.35,0 -4.12,-0.6 -5.3,-1.79 -1.18,-1.2 -1.78,-2.88 -1.78,-5.04l0 -8.31 -3.84 0 0 -3.76 3.84 0 0 -3.97 5.45 -0.65 0 4.62 5.9 0 -0.53 3.76 -5.37 0 0 8.31c0,0.91 0.21,1.56 0.62,1.95 0.4,0.39 1.07,0.58 1.99,0.58 1.15,0 2.22,-0.27 3.2,-0.82l1.81 3.46z"/>
  </g>
  <g>
   <g>
    <path class="fil5" d="M411.44 477.18l150.27 0c6.22,0 11.87,2.54 15.96,6.64 0.02,0.01 0.03,0.02 0.04,0.03l0 0c4.1,4.1 6.64,9.75 6.64,15.96l0 150.27c0,6.24 -2.54,11.9 -6.64,16 -0.19,0.18 -0.38,0.36 -0.57,0.52 -4.05,3.79 -9.48,6.12 -15.43,6.12l-150.27 0c-6.23,0 -11.89,-2.54 -15.99,-6.64 -4.1,-4.1 -6.64,-9.76 -6.64,-16l0 -150.27c0,-6.21 2.54,-11.86 6.64,-15.96 0.01,0 0.01,-0.01 0.02,-0.01l-0.02 -0.02c4.1,-4.1 9.76,-6.64 15.99,-6.64zm0 8.4l150.27 0c7.83,0 14.23,6.41 14.23,14.23l0 150.27c0,7.83 -6.4,14.23 -14.23,14.23l-150.27 0c-7.82,0 -14.23,-6.4 -14.23,-14.23l0 -150.27c0,-7.82 6.41,-14.23 14.23,-14.23z"/>
    <path id="_1_8" class="fil6" d="M411.44 485.58l150.27 0c7.83,0 14.23,6.41 14.23,14.23l0 150.27c0,7.83 -6.4,14.23 -14.23,14.23l-150.27 0c-7.82,0 -14.23,-6.4 -14.23,-14.23l0 -150.27c0,-7.82 6.41,-14.23 14.23,-14.23z"/>
   </g>
   <path class="fil7" d="M454.64 569.04l-6.4 0 0 19.57 -5.66 0 0 -19.57 -6.71 0 0 -4.34 19.35 0 -0.58 4.34zm11.46 -8.34c0.63,0 1.17,0.14 1.66,0.41 0.48,0.27 0.86,0.64 1.13,1.11 0.28,0.46 0.42,0.98 0.42,1.55 0,0.58 -0.14,1.1 -0.42,1.57 -0.27,0.47 -0.65,0.84 -1.14,1.12 -0.49,0.27 -1.04,0.4 -1.65,0.4 -0.62,0 -1.17,-0.13 -1.67,-0.4 -0.5,-0.28 -0.88,-0.65 -1.16,-1.12 -0.27,-0.47 -0.41,-0.99 -0.41,-1.57 0,-0.57 0.14,-1.09 0.41,-1.55 0.28,-0.47 0.66,-0.84 1.16,-1.11 0.5,-0.27 1.05,-0.41 1.67,-0.41zm-7.17 9.59l10.47 0 0 14.59 4.65 0 0 3.73 -15.3 0 0 -3.73 5.2 0 0 -10.86 -5.02 0 0 -3.73zm33.5 -0.6c1.31,0 2.28,0.43 2.9,1.27 0.62,0.86 0.93,2.22 0.93,4.1l0 13.55 -4.67 0 0 -12.94c0,-0.65 -0.07,-1.11 -0.19,-1.37 -0.13,-0.25 -0.37,-0.39 -0.73,-0.39 -0.31,0 -0.61,0.09 -0.92,0.27 -0.3,0.18 -0.63,0.49 -0.97,0.93l0 13.5 -3.83 0 0 -12.94c0,-0.65 -0.06,-1.11 -0.19,-1.37 -0.13,-0.25 -0.37,-0.39 -0.72,-0.39 -0.32,0 -0.62,0.09 -0.93,0.27 -0.3,0.18 -0.63,0.49 -0.97,0.93l0 13.5 -4.74 0 0 -18.32 4 0 0.36 1.78c0.6,-0.81 1.19,-1.42 1.77,-1.8 0.59,-0.39 1.28,-0.58 2.06,-0.58 0.71,0 1.31,0.18 1.78,0.53 0.48,0.36 0.82,0.91 1.03,1.64 1.25,-1.45 2.6,-2.17 4.03,-2.17zm11.88 11.35c0.18,1.44 0.65,2.49 1.42,3.17 0.77,0.68 1.76,1.02 2.98,1.02 1.55,0 3.12,-0.51 4.69,-1.52l2.19 2.96c-0.91,0.79 -1.98,1.4 -3.22,1.85 -1.23,0.45 -2.6,0.68 -4.09,0.68 -2.05,0 -3.78,-0.41 -5.21,-1.23 -1.42,-0.82 -2.5,-1.96 -3.22,-3.43 -0.72,-1.46 -1.09,-3.15 -1.09,-5.07 0,-1.83 0.35,-3.48 1.05,-4.97 0.71,-1.48 1.73,-2.66 3.08,-3.52 1.34,-0.86 2.94,-1.29 4.8,-1.29 1.74,0 3.26,0.37 4.55,1.12 1.29,0.75 2.29,1.83 2.99,3.24 0.7,1.41 1.05,3.1 1.05,5.04 0,0.75 -0.03,1.4 -0.1,1.95l-11.87 0zm3.38 -7.69c-1,0 -1.79,0.36 -2.38,1.08 -0.6,0.73 -0.95,1.84 -1.06,3.33l6.72 0c-0.04,-2.95 -1.12,-4.41 -3.28,-4.41zm26.58 -3.61c1.09,0 2.1,0.19 3.02,0.55l-1.02 7.66 -3.42 0 0 -3.38c-1.01,0.18 -1.91,0.74 -2.69,1.66 -0.78,0.92 -1.39,2.08 -1.84,3.48l0 5.24 3.62 0 0 3.66 -11.48 0 0 -3.66 2.41 0 0 -11.04 -2.41 0 0 -3.62 6.56 0 1 4.13c0.66,-1.58 1.49,-2.76 2.51,-3.52 1.02,-0.77 2.27,-1.16 3.74,-1.16z"/>
  </g>
  <g>
   <g>
    <path class="fil5" d="M662.84 477.18l150.27 0c6.23,0 11.89,2.54 15.99,6.64 0.19,0.18 0.36,0.38 0.52,0.57 3.79,4.05 6.12,9.48 6.12,15.42l0 150.27c0,6.24 -2.54,11.9 -6.64,16 -4.1,4.1 -9.76,6.64 -15.99,6.64l-150.27 0c-6.21,0 -11.86,-2.54 -15.96,-6.64 -0.01,-0.01 -0.01,-0.01 -0.02,-0.02l-0.02 0.02c-4.09,-4.1 -6.64,-9.76 -6.64,-16l0 -150.27c0,-6.21 2.55,-11.86 6.64,-15.96 0.01,-0.01 0.03,-0.02 0.04,-0.03l0 0c4.1,-4.1 9.75,-6.64 15.96,-6.64zm0 8.4l150.27 0c7.82,0 14.23,6.41 14.23,14.23l0 150.27c0,7.83 -6.41,14.23 -14.23,14.23l-150.27 0c-7.83,0 -14.23,-6.4 -14.23,-14.23l0 -150.27c0,-7.82 6.4,-14.23 14.23,-14.23z"/>
    <path id="_1_9" class="fil6" d="M662.84 485.58l150.27 0c7.82,0 14.23,6.41 14.23,14.23l0 150.27c0,7.83 -6.41,14.23 -14.23,14.23l-150.27 0c-7.83,0 -14.23,-6.4 -14.23,-14.23l0 -150.27c0,-7.82 6.4,-14.23 14.23,-14.23z"/>
   </g>
   <path class="fil7" d="M713.69 585.35c0,-0.69 0.17,-1.33 0.51,-1.92 0.35,-0.58 0.81,-1.05 1.41,-1.4 0.59,-0.35 1.23,-0.53 1.92,-0.53 0.69,0 1.33,0.18 1.92,0.53 0.6,0.35 1.06,0.82 1.41,1.4 0.35,0.59 0.51,1.23 0.51,1.92 0,0.69 -0.16,1.32 -0.51,1.91 -0.35,0.59 -0.81,1.06 -1.41,1.41 -0.59,0.35 -1.23,0.53 -1.92,0.53 -0.69,0 -1.33,-0.18 -1.92,-0.53 -0.6,-0.35 -1.06,-0.82 -1.41,-1.41 -0.34,-0.59 -0.51,-1.22 -0.51,-1.91zm20.69 0c0,-0.69 0.17,-1.33 0.51,-1.92 0.35,-0.58 0.82,-1.05 1.41,-1.4 0.59,-0.35 1.23,-0.53 1.92,-0.53 0.69,0 1.34,0.18 1.92,0.53 0.6,0.35 1.06,0.82 1.41,1.4 0.35,0.59 0.52,1.23 0.52,1.92 0,0.69 -0.17,1.32 -0.52,1.91 -0.35,0.59 -0.81,1.06 -1.41,1.41 -0.58,0.35 -1.23,0.53 -1.92,0.53 -0.69,0 -1.33,-0.18 -1.92,-0.53 -0.59,-0.35 -1.06,-0.82 -1.41,-1.41 -0.34,-0.59 -0.51,-1.22 -0.51,-1.91zm20.69 0c0,-0.69 0.17,-1.33 0.52,-1.92 0.34,-0.58 0.81,-1.05 1.4,-1.4 0.6,-0.35 1.23,-0.53 1.92,-0.53 0.69,0 1.34,0.18 1.93,0.53 0.59,0.35 1.06,0.82 1.4,1.4 0.35,0.59 0.52,1.23 0.52,1.92 0,0.69 -0.17,1.32 -0.52,1.91 -0.34,0.59 -0.81,1.06 -1.4,1.41 -0.59,0.35 -1.24,0.53 -1.93,0.53 -0.69,0 -1.32,-0.18 -1.92,-0.53 -0.59,-0.35 -1.06,-0.82 -1.4,-1.41 -0.35,-0.59 -0.52,-1.22 -0.52,-1.91z"/>
  </g>
 </g>
</svg>
